<svg xmlns="http://www.w3.org/2000/svg" viewBox="0 0 512 512" width="512" height="512">
  <rect width="512" height="512" rx="97" fill="#000000"/>
  <g transform="translate(49.202, 448.010) scale(0.480728)">
    <path d="M596.680-15.137L596.680-15.137Q503.418-57.617 374.023-105.957L374.023-105.957L303.711-15.137Q125.488-59.570 31.250-84.961L31.250-84.961Q100.586-155.762 127.197-191.162Q153.809-226.563 153.809-251.953Q153.809-277.344 142.578-301.270L142.578-301.270L37.109-556.641Q22.461-592.285 22.461-603.271Q22.461-614.258 23.438-617.188L23.438-617.188Q26.367-635.742 54.199-662.598L54.199-662.598L184.082-783.691Q202.637-778.320 221.436-773.438Q240.234-768.555 259.277-762.695L259.277-762.695Q193.848-687.988 193.848-646.973L193.848-646.973Q193.848-616.211 214.355-574.707L214.355-574.707Q295.898-638.184 389.160-762.695L389.160-762.695L527.832-622.070Q591.309-658.691 698.730-762.695L698.730-762.695Q788.574-610.352 824.219-481.934L824.219-481.934Q837.891-434.082 837.891-392.090L837.891-392.090Q837.891-322.754 795.166-263.672Q752.441-204.590 699.951-141.602Q647.461-78.613 596.680-15.137ZM592.773-583.496L543.945-547.363L532.227-201.172Q572.266-182.617 638.184-157.227L638.184-157.227Q698.242-215.820 698.242-295.410L698.242-295.410Q698.242-317.871 693.359-342.285L693.359-342.285Q671.387-452.148 592.773-583.496L592.773-583.496ZM249.512-507.813L250.977-505.371Q300.293-412.109 300.293-367.432Q300.293-322.754 202.148-192.871L202.148-192.871Q280.273-156.738 318.359-156.738L318.359-156.738Q357.422-156.738 383.301-192.383L383.301-192.383Q395.508-320.313 395.508-395.020Q395.508-469.727 390.625-527.344L390.625-527.344Q351.074-573.730 327.148-604.004L327.148-604.004L249.512-507.813Z" fill="#ffffff"/>
    <rect x="-26.465" y="-449.370" width="913.281" height="99.912" fill="#ffffff"/>
  </g>
</svg>
